<?xml version="1.0" encoding="UTF-8" standalone="no"?>
<!DOCTYPE svg PUBLIC "-//W3C//DTD SVG 1.1//EN" "http://www.w3.org/Graphics/SVG/1.1/DTD/svg11.dtd">
<svg width="100%" height="100%" viewBox="0 0 1024 1024" version="1.1" xmlns="http://www.w3.org/2000/svg" xmlns:xlink="http://www.w3.org/1999/xlink" xml:space="preserve" xmlns:serif="http://www.serif.com/" style="fill-rule:evenodd;clip-rule:evenodd;stroke-linejoin:round;stroke-miterlimit:2;">
    <g transform="matrix(7.61785,0,0,7.61785,24.4575,24.4575)">
        <g>
            <g>
                <path d="M90.59,108.57C91.51,108.3 92.01,107.26 91.56,106.41C88.42,100.47 75.02,100.3 69.95,89.14C66.57,81.69 66.38,71.33 66.28,66.9C66.14,60.91 69.13,59.62 69.13,59.62C83.29,53.92 93.7,40.76 94.3,29.01C94.36,27.84 72.12,38.18 64.47,39.67C50.33,42.43 36.24,38.8 36.16,39.3C41.4,50.77 51.95,56.76 59.02,59.62C60.7,60.31 63.48,62.92 63.39,70.76C63.32,76.37 62.62,91.16 52.95,97.45C49.31,99.82 41.26,103.29 39.76,107.06C39.43,107.89 39.9,108.83 40.77,109.05C43.53,109.75 51.95,110.98 65.04,110.98C75.33,110.99 85.49,110.05 90.59,108.57Z" style="fill:rgb(255,202,40);fill-rule:nonzero;"/>
            </g>
            <path d="M42.37,43.29C47.73,46.06 59.49,50.01 65.29,48.01C71.09,46.01 93.52,32 94.29,29.01C95.25,25.31 68.29,34.72 58.8,36.92C52.37,38.41 40.09,37.64 37.33,38.22C34.58,38.79 37.44,40.74 42.37,43.29Z" style="fill:rgb(226,166,16);fill-rule:nonzero;"/>
        </g>
    </g>
</svg>
